ply
format ascii 1.0
comment created by MATLAB ply_write
element vertex 563
property float x
property float y
property float z
property char red
property char green
property char blue
element face 1122
property list uchar short vertex_indices
end_header
95.573053 140.582192 95.115092 0 0 0 
94.953933 139.941114 95.738815 0 0 0 
94.660943 141.048807 95.494515 0 0 0 
96.615815 139.936222 95.264475 0 0 0 
96.640625 141.083333 94.890127 0 0 0 
97.500000 140.564136 94.894411 0 0 0 
98.359375 141.083333 94.818949 0 0 0 
98.437500 139.971695 95.118454 0 0 0 
97.875000 139.508053 95.870058 0 0 0 
99.375000 140.500000 94.854070 0 0 0 
100.312500 141.126832 94.985627 0 0 0 
100.181567 139.974043 95.259434 0 0 0 
101.221917 140.416875 95.296676 0 0 0 
102.229615 140.371251 95.863901 0 0 0 
99.375000 139.563811 95.802473 0 0 0 
101.586394 141.659030 95.616725 0 0 0 
102.759545 141.503993 96.339654 0 0 0 
98.437500 138.934413 96.752406 0 0 0 
97.232143 138.643973 97.035644 0 0 0 
99.447115 138.649580 97.016822 0 0 0 
98.945312 142.062322 95.272259 0 0 0 
100.705600 139.388620 96.251682 0 0 0 
101.701444 139.277262 96.702782 0 0 0 
102.637504 139.290912 97.141279 0 0 0 
103.336613 140.060903 96.908101 0 0 0 
103.733498 141.086926 97.075100 0 0 0 
103.515719 142.084314 97.343720 0 0 0 
104.089393 142.351172 98.108866 0 0 0 
104.804439 142.296583 98.779264 0 0 0 
105.463854 142.082969 99.343986 0 0 0 
104.988263 142.929388 99.858875 0 0 0 
105.425974 143.011739 100.901221 0 0 0 
106.071952 142.604808 101.383929 0 0 0 
106.136902 142.046235 100.273888 0 0 0 
106.483675 141.071429 100.261982 0 0 0 
106.611116 141.416667 101.328125 0 0 0 
104.163347 143.072059 99.274425 0 0 0 
103.228769 143.181984 98.802478 0 0 0 
102.120536 143.356494 98.638393 0 0 0 
101.250000 143.367304 97.968750 0 0 0 
100.312500 143.360822 97.500000 0 0 0 
99.296875 143.298475 96.953125 0 0 0 
98.437500 143.404900 97.500000 0 0 0 
97.500000 143.449180 97.968750 0 0 0 
96.640625 143.471587 98.515625 0 0 0 
95.625000 143.468749 98.906250 0 0 0 
94.765625 143.459565 99.453125 0 0 0 
94.335938 143.466833 100.312500 0 0 0 
93.816964 143.450130 101.183036 0 0 0 
94.296875 143.456137 102.109375 0 0 0 
95.156250 143.472299 102.656250 0 0 0 
96.171875 143.481388 103.046875 0 0 0 
97.109375 143.469469 103.671875 0 0 0 
98.046875 143.488266 103.203125 0 0 0 
98.984375 143.497310 102.578125 0 0 0 
98.388787 143.499999 101.616125 0 0 0 
97.299107 143.498685 102.254464 0 0 0 
96.953125 143.499762 101.328125 0 0 0 
97.661246 143.499927 100.473720 0 0 0 
98.437500 143.499387 99.843750 0 0 0 
98.875929 143.499962 100.815108 0 0 0 
99.765625 143.499872 101.328125 0 0 0 
100.390625 143.498015 102.265625 0 0 0 
95.892857 143.497962 100.714286 0 0 0 
96.445312 143.496184 99.726562 0 0 0 
100.312500 143.498193 100.312500 0 0 0 
101.171875 143.497567 101.640625 0 0 0 
95.625000 143.495715 101.718750 0 0 0 
99.375000 143.495398 99.375000 0 0 0 
101.796875 143.488742 100.703125 0 0 0 
101.367188 143.478797 99.726562 0 0 0 
99.843750 143.489338 103.125000 0 0 0 
97.890625 143.491192 98.984375 0 0 0 
102.187500 143.483127 102.187500 0 0 0 
102.656250 143.477226 101.250000 0 0 0 
98.984375 143.471242 98.359375 0 0 0 
101.640625 143.472213 103.046875 0 0 0 
100.859375 143.461416 103.671875 0 0 0 
100.429688 143.471340 98.789062 0 0 0 
99.296875 143.455394 103.984375 0 0 0 
98.437500 143.402596 104.531250 0 0 0 
103.593750 143.429061 101.718750 0 0 0 
103.203125 143.408682 102.734375 0 0 0 
102.857143 143.342742 103.660714 0 0 0 
103.125000 143.413764 100.178571 0 0 0 
100.312500 143.395568 104.531250 0 0 0 
104.196429 143.337612 100.781250 0 0 0 
95.625000 143.401182 104.062500 0 0 0 
96.562500 143.384539 104.531250 0 0 0 
94.687500 143.379602 103.593750 0 0 0 
93.549107 143.292942 103.058036 0 0 0 
93.163861 142.870706 104.022352 0 0 0 
97.578125 143.302623 105.078125 0 0 0 
102.120536 143.261092 104.595936 0 0 0 
103.137772 142.841166 105.008845 0 0 0 
101.328125 143.238938 105.078125 0 0 0 
96.015625 143.347118 97.421875 0 0 0 
95.156250 143.367253 97.968750 0 0 0 
94.218750 143.324269 98.437500 0 0 0 
97.031250 143.315856 97.031250 0 0 0 
93.121430 143.186507 98.964844 0 0 0 
92.686036 143.210689 99.706512 0 0 0 
92.209821 143.196535 100.781250 0 0 0 
91.431763 142.796816 100.839844 0 0 0 
92.879464 143.315991 101.919643 0 0 0 
97.968750 143.103969 96.317520 0 0 0 
96.389788 143.026539 96.263348 0 0 0 
99.874599 142.952498 96.149996 0 0 0 
104.143605 142.592290 104.373493 0 0 0 
93.758395 142.941487 97.507541 0 0 0 
104.815611 143.196049 102.193643 0 0 0 
104.795454 142.932993 103.246492 0 0 0 
102.785691 142.882891 97.528640 0 0 0 
106.255442 141.990572 102.195130 0 0 0 
105.901046 141.023621 99.311692 0 0 0 
105.287621 140.032705 98.805453 0 0 0 
104.987512 141.188730 98.358559 0 0 0 
104.461951 140.468111 97.794003 0 0 0 
99.791205 143.159964 105.527673 0 0 0 
98.859375 142.949521 105.946011 0 0 0 
93.269624 142.183432 97.052006 0 0 0 
104.119099 139.473959 98.114924 0 0 0 
91.891714 142.945640 102.180578 0 0 0 
92.709175 142.624812 98.083333 0 0 0 
95.055987 143.063745 105.174738 0 0 0 
96.026786 143.078268 105.536256 0 0 0 
96.988155 142.825422 106.040009 0 0 0 
94.039156 142.919597 104.714547 0 0 0 
95.625000 142.486395 106.117583 0 0 0 
95.898132 141.541667 106.420140 0 0 0 
95.551874 140.461764 106.462382 0 0 0 
94.581790 142.250611 105.773559 0 0 0 
94.547326 141.000000 105.952321 0 0 0 
94.033642 140.136475 105.774165 0 0 0 
101.657779 143.043654 96.927759 0 0 0 
101.836666 142.449193 96.254356 0 0 0 
94.748553 143.043582 96.927882 0 0 0 
94.645271 142.494079 96.241591 0 0 0 
95.170222 139.441069 106.710954 0 0 0 
100.781250 142.865501 105.952740 0 0 0 
101.819013 142.656426 105.920252 0 0 0 
101.578492 141.500000 106.397884 0 0 0 
101.936827 140.415588 106.430110 0 0 0 
102.672694 142.188348 105.850816 0 0 0 
102.796419 141.000000 105.952323 0 0 0 
103.306952 140.048975 105.807996 0 0 0 
103.218816 139.083628 106.301718 0 0 0 
102.274894 139.039104 106.867462 0 0 0 
101.070051 139.716084 106.870168 0 0 0 
100.781250 138.887501 107.314528 0 0 0 
100.312500 137.950513 107.777147 0 0 0 
101.366842 137.586143 107.817026 0 0 0 
102.322238 136.971766 107.812860 0 0 0 
103.181054 136.950407 107.336674 0 0 0 
102.305816 135.951265 108.258233 0 0 0 
103.160250 135.834373 107.921859 0 0 0 
101.359965 136.580758 108.285824 0 0 0 
100.254415 136.808541 108.334317 0 0 0 
101.206449 135.548175 108.738313 0 0 0 
99.453125 136.416667 108.536104 0 0 0 
102.174607 134.991005 108.726961 0 0 0 
101.568832 134.058744 109.360708 0 0 0 
102.515625 133.579250 109.408590 0 0 0 
103.178269 134.602992 108.548989 0 0 0 
104.085015 134.026611 108.459988 0 0 0 
104.637435 133.121585 108.631775 0 0 0 
103.539372 132.997643 109.389248 0 0 0 
99.549962 138.687453 107.485013 0 0 0 
103.974150 135.853173 107.376276 0 0 0 
104.882265 135.453601 106.950243 0 0 0 
105.707174 134.999847 106.396950 0 0 0 
105.387093 134.405100 107.355138 0 0 0 
105.702494 133.375616 107.431290 0 0 0 
105.547473 135.680523 105.540976 0 0 0 
105.889575 135.157093 104.520371 0 0 0 
105.968350 133.996110 104.428467 0 0 0 
105.465998 133.855675 103.605438 0 0 0 
105.329580 134.888889 103.156865 0 0 0 
105.527512 136.142857 103.559180 0 0 0 
105.477798 136.512314 104.551298 0 0 0 
104.997216 132.780247 103.504856 0 0 0 
106.086373 133.941840 106.466940 0 0 0 
106.166344 134.500000 105.468750 0 0 0 
105.408624 136.643709 102.791353 0 0 0 
104.868483 136.597650 101.650397 0 0 0 
105.125861 137.623298 100.978865 0 0 0 
104.958276 135.447943 102.404976 0 0 0 
105.552977 137.461792 102.010361 0 0 0 
98.437500 137.016852 108.289801 0 0 0 
98.437500 137.910329 107.836572 0 0 0 
97.500000 137.492274 108.039910 0 0 0 
99.375000 137.494147 108.041293 0 0 0 
98.437500 139.011245 107.349270 0 0 0 
97.499180 138.642936 107.497887 0 0 0 
96.562500 137.857913 107.800354 0 0 0 
95.512169 137.581059 107.806121 0 0 0 
95.131777 138.157830 107.357582 0 0 0 
94.224545 138.566912 106.668080 0 0 0 
94.502408 136.946497 107.893680 0 0 0 
93.822759 137.252775 107.343649 0 0 0 
93.553698 136.095199 107.740668 0 0 0 
93.756848 135.000000 108.079679 0 0 0 
92.698450 135.555556 107.158725 0 0 0 
92.947132 136.846131 106.992441 0 0 0 
91.937957 136.341032 106.267463 0 0 0 
94.597811 136.032826 108.293431 0 0 0 
94.701530 134.813816 108.698898 0 0 0 
95.558036 136.550452 108.358508 0 0 0 
96.609208 136.920945 108.299414 0 0 0 
96.562500 135.870419 108.748770 0 0 0 
95.528430 135.419331 108.802541 0 0 0 
96.161905 134.583716 109.247387 0 0 0 
97.500000 136.500000 108.509169 0 0 0 
98.437500 136.052077 108.706684 0 0 0 
93.228430 137.739438 106.494865 0 0 0 
99.468750 135.664667 108.874929 0 0 0 
100.359375 134.968600 109.132191 0 0 0 
98.513975 135.069122 109.192151 0 0 0 
97.406250 135.489595 108.971903 0 0 0 
90.862746 141.944880 100.280434 0 0 0 
90.840937 141.393654 99.497745 0 0 0 
91.672192 142.656197 99.463652 0 0 0 
90.667624 141.563969 101.183036 0 0 0 
90.391705 140.612009 101.308217 0 0 0 
90.339038 140.209378 100.153272 0 0 0 
90.482054 139.052872 99.953336 0 0 0 
90.519926 137.929853 100.258500 0 0 0 
90.791802 136.747936 100.410859 0 0 0 
90.940080 140.997143 102.356288 0 0 0 
90.563246 139.873135 102.238390 0 0 0 
91.152153 142.113629 102.103672 0 0 0 
90.931947 139.478389 103.030422 0 0 0 
91.655835 140.046683 103.594619 0 0 0 
90.287297 139.002786 102.256165 0 0 0 
89.954011 137.945491 102.224658 0 0 0 
89.674989 137.000000 102.187500 0 0 0 
90.031313 137.458854 103.246563 0 0 0 
91.560625 138.954676 104.025056 0 0 0 
90.063201 137.104422 101.112909 0 0 0 
90.185247 135.964274 101.664673 0 0 0 
90.588438 137.507519 104.041455 0 0 0 
90.066374 135.582542 102.597656 0 0 0 
89.685715 136.500000 103.125000 0 0 0 
90.031992 138.589736 101.286958 0 0 0 
90.629389 138.371408 103.294605 0 0 0 
89.986228 136.013883 103.852200 0 0 0 
90.419201 134.827197 104.222643 0 0 0 
90.481490 134.626755 103.101462 0 0 0 
90.902485 134.723123 102.140678 0 0 0 
90.891618 133.548973 102.981872 0 0 0 
90.984089 132.494219 103.726614 0 0 0 
90.809038 132.919309 104.549457 0 0 0 
91.194728 133.000000 105.442804 0 0 0 
90.985016 134.000000 105.240745 0 0 0 
91.197713 135.041667 105.625652 0 0 0 
91.602953 131.975859 105.441986 0 0 0 
91.348759 134.938628 101.392312 0 0 0 
91.690993 131.593856 104.433779 0 0 0 
91.087216 137.080017 105.013599 0 0 0 
90.600145 136.050000 104.906547 0 0 0 
91.681436 141.974484 103.099184 0 0 0 
92.449797 142.687507 103.542333 0 0 0 
92.366312 141.431849 104.043836 0 0 0 
99.375000 134.579125 109.387315 0 0 0 
100.312500 133.842726 109.663179 0 0 0 
98.437500 134.042284 109.638297 0 0 0 
97.406250 133.633604 109.789051 0 0 0 
97.518251 132.462238 110.190536 0 0 0 
97.265233 131.571429 110.158694 0 0 0 
97.565485 130.652387 110.137829 0 0 0 
96.462364 130.010069 109.529405 0 0 0 
96.997486 128.879394 109.531005 0 0 0 
98.034734 128.998676 110.026987 0 0 0 
98.949343 128.378047 110.114951 0 0 0 
96.534305 133.160025 109.834621 0 0 0 
98.437500 132.858851 110.152813 0 0 0 
98.895065 127.346895 109.667228 0 0 0 
98.293064 129.978632 110.227929 0 0 0 
99.375000 129.500000 110.329891 0 0 0 
100.312500 128.857143 110.305486 0 0 0 
100.253906 127.972441 110.013310 0 0 0 
101.183036 127.606092 109.628987 0 0 0 
101.820742 128.508499 110.126731 0 0 0 
101.718750 129.357143 110.311736 0 0 0 
102.202800 127.658141 109.357209 0 0 0 
103.141830 127.594301 108.743972 0 0 0 
104.052393 127.767626 108.277059 0 0 0 
104.489795 127.716610 107.412999 0 0 0 
104.013739 127.498120 106.529176 0 0 0 
105.050613 128.045915 106.390706 0 0 0 
104.075641 128.145382 105.327039 0 0 0 
100.859375 130.083333 110.378659 0 0 0 
99.921875 130.583333 110.379912 0 0 0 
98.906250 131.142857 110.353006 0 0 0 
103.091963 127.252653 106.161614 0 0 0 
102.205685 127.451857 105.503720 0 0 0 
101.250000 126.997441 105.697518 0 0 0 
102.013791 126.535944 106.634082 0 0 0 
100.714318 126.226163 106.467975 0 0 0 
101.079682 126.101842 107.340181 0 0 0 
100.654735 126.231753 108.249231 0 0 0 
101.660723 126.760671 108.390315 0 0 0 
99.913352 126.221903 108.634159 0 0 0 
100.321613 127.092940 109.387422 0 0 0 
98.906250 126.541368 109.188086 0 0 0 
102.610836 126.911495 107.701630 0 0 0 
102.863218 129.958603 110.200413 0 0 0 
104.858887 128.670046 105.228662 0 0 0 
105.688433 128.953052 105.929156 0 0 0 
105.518333 129.649034 105.070907 0 0 0 
104.928188 129.968462 104.281420 0 0 0 
104.215156 130.490244 103.532245 0 0 0 
104.444701 131.521155 103.321182 0 0 0 
105.301529 130.833333 104.208083 0 0 0 
105.449967 132.125000 104.187803 0 0 0 
105.933692 131.342746 104.988802 0 0 0 
105.916299 129.014808 107.026615 0 0 0 
105.360909 128.488924 107.799608 0 0 0 
105.589362 129.569908 108.316700 0 0 0 
106.230477 130.125000 106.875000 0 0 0 
105.747460 130.616614 108.345554 0 0 0 
105.913016 131.504061 107.815810 0 0 0 
106.176512 130.555556 105.792744 0 0 0 
103.949766 129.318731 104.313527 0 0 0 
98.854167 125.984395 108.403073 0 0 0 
97.968750 125.891806 107.914734 0 0 0 
98.554688 125.948289 106.726803 0 0 0 
99.583333 125.882226 107.254582 0 0 0 
96.928711 126.015781 107.351124 0 0 0 
97.622505 126.253139 106.269436 0 0 0 
96.572194 126.625613 106.122266 0 0 0 
99.810996 126.457941 105.994537 0 0 0 
95.593466 127.019639 106.479651 0 0 0 
101.471243 128.001792 105.005399 0 0 0 
99.427083 132.599497 110.243206 0 0 0 
100.234375 131.916667 110.354717 0 0 0 
101.171875 131.416667 110.360833 0 0 0 
102.109375 130.916667 110.318690 0 0 0 
102.731625 131.992959 110.108496 0 0 0 
103.534976 131.509864 109.922931 0 0 0 
104.686836 131.499248 109.274630 0 0 0 
104.342800 130.500000 109.676124 0 0 0 
104.632838 129.507696 109.312781 0 0 0 
103.693087 129.415773 109.852129 0 0 0 
103.176690 128.432872 109.676221 0 0 0 
99.375000 133.603174 109.845586 0 0 0 
95.182579 127.846968 105.967218 0 0 0 
96.298423 127.520034 105.503346 0 0 0 
94.582983 128.787039 105.493458 0 0 0 
95.728471 128.663150 104.841491 0 0 0 
103.066406 128.270484 104.959942 0 0 0 
95.910140 126.553209 107.381743 0 0 0 
96.257836 126.857031 108.346822 0 0 0 
100.687500 128.750510 104.528556 0 0 0 
100.312500 127.853945 105.065014 0 0 0 
99.433594 127.460909 105.273559 0 0 0 
98.320312 126.955950 105.583131 0 0 0 
97.709752 127.905824 105.047985 0 0 0 
97.457386 128.814236 104.496088 0 0 0 
97.857261 127.041681 109.347209 0 0 0 
97.361067 126.264168 108.582532 0 0 0 
97.127311 127.652658 109.288000 0 0 0 
96.207532 128.055556 108.728744 0 0 0 
95.890594 129.237930 108.818788 0 0 0 
95.114819 129.657164 108.260087 0 0 0 
97.392109 134.606237 109.375108 0 0 0 
95.362563 128.521398 107.985813 0 0 0 
94.654387 128.673163 106.953888 0 0 0 
96.034199 130.937393 109.511783 0 0 0 
104.609101 128.619521 108.885437 0 0 0 
99.468750 139.498185 107.105684 0 0 0 
99.394140 140.311611 106.786872 0 0 0 
98.515625 141.083333 106.662313 0 0 0 
98.234688 139.950326 106.904562 0 0 0 
97.421875 141.583333 106.601913 0 0 0 
100.446429 141.000000 106.618845 0 0 0 
90.874430 136.120791 100.713070 0 0 0 
90.957500 139.371609 99.194291 0 0 0 
90.969221 140.439475 98.861725 0 0 0 
101.796079 132.574460 110.140939 0 0 0 
100.833333 133.093909 110.013957 0 0 0 
92.747456 130.926244 104.047346 0 0 0 
92.798111 131.519172 103.051016 0 0 0 
93.803092 130.853334 103.365337 0 0 0 
91.810397 132.049588 103.103826 0 0 0 
94.961302 130.450640 103.298207 0 0 0 
94.218017 129.916622 104.101230 0 0 0 
95.343481 129.570527 104.043121 0 0 0 
92.855918 130.418294 104.968425 0 0 0 
94.203376 131.570101 102.344115 0 0 0 
93.360548 132.105162 102.054476 0 0 0 
92.499929 132.711585 101.990284 0 0 0 
93.822269 129.610234 104.959381 0 0 0 
92.622992 130.909999 105.960449 0 0 0 
93.730340 129.538555 106.110403 0 0 0 
94.769272 130.617653 108.380925 0 0 0 
94.120792 129.982941 107.338927 0 0 0 
94.757933 131.501681 108.745722 0 0 0 
94.867576 132.444444 109.104440 0 0 0 
94.346523 133.555556 108.684200 0 0 0 
93.922895 132.437500 108.293008 0 0 0 
93.260859 131.872435 107.454519 0 0 0 
93.584787 130.877407 107.273937 0 0 0 
105.267409 132.368729 108.383907 0 0 0 
103.165404 138.071058 106.797255 0 0 0 
102.088829 138.162224 107.324791 0 0 0 
103.910750 137.410583 106.511263 0 0 0 
96.484375 139.058088 107.226730 0 0 0 
105.650480 142.031927 103.159349 0 0 0 
96.997768 129.516362 103.852011 0 0 0 
96.860795 130.237544 103.155445 0 0 0 
96.510417 130.993350 102.532338 0 0 0 
97.552083 131.244319 102.232665 0 0 0 
97.542614 132.027758 101.421618 0 0 0 
95.497077 131.277279 102.365856 0 0 0 
96.152344 131.977742 101.511365 0 0 0 
94.987602 132.436081 101.253422 0 0 0 
96.093750 132.878137 100.745199 0 0 0 
96.392045 133.540528 100.070869 0 0 0 
96.392045 134.247454 99.416134 0 0 0 
97.089844 135.029524 98.931402 0 0 0 
96.973611 136.055882 98.406067 0 0 0 
95.959821 135.263379 98.851852 0 0 0 
98.035714 135.501446 98.679238 0 0 0 
98.906824 135.381048 98.760820 0 0 0 
99.977679 135.295345 98.889181 0 0 0 
100.816005 135.935172 98.735283 0 0 0 
98.267045 134.231653 99.401131 0 0 0 
98.343750 133.527425 100.056871 0 0 0 
101.732590 136.607394 98.748909 0 0 0 
102.719102 136.547664 99.437628 0 0 0 
95.062020 136.073983 98.559775 0 0 0 
94.181783 135.890199 98.858478 0 0 0 
93.367542 135.549545 99.376852 0 0 0 
92.850201 136.540696 99.111251 0 0 0 
92.816570 134.963655 100.115137 0 0 0 
93.678938 134.482103 99.899931 0 0 0 
94.782411 134.493660 99.486067 0 0 0 
94.461553 133.563700 100.363293 0 0 0 
93.211521 133.711448 100.796783 0 0 0 
93.776387 132.849839 101.263681 0 0 0 
92.285635 134.092203 101.165284 0 0 0 
95.143662 137.136341 98.105734 0 0 0 
94.160329 137.387007 98.245002 0 0 0 
96.093750 136.424857 98.283898 0 0 0 
93.214161 137.924508 98.364203 0 0 0 
92.258399 138.665537 98.495324 0 0 0 
92.184038 139.386866 98.096894 0 0 0 
93.269272 138.952725 97.799844 0 0 0 
93.664170 139.647309 96.876731 0 0 0 
94.591129 139.520999 96.521039 0 0 0 
94.182106 138.591350 97.669648 0 0 0 
95.203305 138.239942 97.593390 0 0 0 
96.219911 137.710541 97.698298 0 0 0 
97.031250 137.103348 97.953830 0 0 0 
97.968750 137.737127 97.608919 0 0 0 
98.906250 137.025710 97.985156 0 0 0 
99.806849 137.683936 97.675989 0 0 0 
92.732888 140.025820 97.211387 0 0 0 
92.378037 137.585109 98.897237 0 0 0 
100.781250 138.273037 97.414998 0 0 0 
101.800485 138.023937 97.827810 0 0 0 
102.681536 137.685352 98.529629 0 0 0 
103.661557 138.019705 99.005775 0 0 0 
98.046875 136.416667 98.243283 0 0 0 
91.833706 136.510659 99.730313 0 0 0 
98.859375 132.711125 100.850462 0 0 0 
103.723419 141.412235 105.237982 0 0 0 
95.910233 132.055556 109.714685 0 0 0 
96.429342 141.979439 95.311544 0 0 0 
95.577581 142.201870 95.631923 0 0 0 
97.670455 142.340464 95.437630 0 0 0 
93.648986 141.541667 105.249753 0 0 0 
100.353093 142.084833 95.436111 0 0 0 
105.901721 138.124719 103.173386 0 0 0 
106.058688 138.416066 102.191692 0 0 0 
106.085957 138.939929 101.206752 0 0 0 
105.651840 138.915269 100.342185 0 0 0 
104.938889 139.017068 99.366561 0 0 0 
106.229443 132.000000 105.937500 0 0 0 
106.099166 132.413242 106.972829 0 0 0 
91.816086 135.536886 100.426590 0 0 0 
95.628128 138.893930 97.012269 0 0 0 
96.226148 139.406816 96.175947 0 0 0 
106.532731 139.931281 101.264003 0 0 0 
106.388177 140.114189 102.277269 0 0 0 
105.897523 140.509490 103.116028 0 0 0 
102.698864 129.061394 104.315552 0 0 0 
101.718750 129.267494 104.075097 0 0 0 
104.437689 138.077395 105.670835 0 0 0 
104.168725 139.122605 105.496408 0 0 0 
104.968818 139.048817 104.709079 0 0 0 
105.612735 139.436427 103.735672 0 0 0 
104.445087 140.150000 104.789022 0 0 0 
105.352651 138.009423 104.476725 0 0 0 
104.946713 137.059123 105.458878 0 0 0 
102.186379 135.504204 99.611174 0 0 0 
102.745960 134.827901 100.382146 0 0 0 
103.397611 135.563862 100.583352 0 0 0 
104.209634 135.004514 101.685779 0 0 0 
103.635433 133.922535 101.621329 0 0 0 
101.339599 134.829449 99.500459 0 0 0 
104.133335 136.408756 100.880748 0 0 0 
103.659625 132.831009 102.211275 0 0 0 
102.585409 132.532077 101.652016 0 0 0 
101.754769 132.483056 101.349771 0 0 0 
100.804965 132.923997 100.812483 0 0 0 
100.677083 132.049672 101.472189 0 0 0 
101.250000 131.374421 102.182480 0 0 0 
100.218750 131.101214 102.377944 0 0 0 
102.710074 133.853135 100.915670 0 0 0 
101.749718 133.759826 100.398479 0 0 0 
100.804432 133.903370 99.927836 0 0 0 
99.796875 133.389809 100.249176 0 0 0 
102.182814 131.090073 102.555921 0 0 0 
103.221276 131.684900 102.498543 0 0 0 
101.171875 130.462862 102.941181 0 0 0 
106.058121 133.000000 105.117720 0 0 0 
91.456703 138.524677 99.094322 0 0 0 
91.385616 137.485480 99.595979 0 0 0 
95.327805 127.553422 107.415364 0 0 0 
99.824917 142.178847 106.493937 0 0 0 
92.172053 137.427290 105.817461 0 0 0 
96.988636 140.292272 106.760316 0 0 0 
99.791667 136.331443 98.354231 0 0 0 
100.881611 137.085601 98.167071 0 0 0 
104.539255 136.389159 106.420748 0 0 0 
91.612442 141.613219 98.446002 0 0 0 
91.694029 140.331743 98.043003 0 0 0 
92.433749 141.132669 97.329568 0 0 0 
93.299355 140.888168 96.495575 0 0 0 
93.952554 141.559124 96.121275 0 0 0 
92.790449 133.090909 107.283653 0 0 0 
102.128906 129.974823 103.385142 0 0 0 
103.246655 130.367139 103.257536 0 0 0 
99.843750 130.236003 103.105184 0 0 0 
99.207589 129.427151 103.901744 0 0 0 
98.859375 128.569566 104.636901 0 0 0 
97.950105 142.508076 106.360738 0 0 0 
104.582404 134.669801 107.825084 0 0 0 
93.347431 133.954545 107.828703 0 0 0 
91.869752 133.055556 106.321278 0 0 0 
92.378475 131.905121 106.503601 0 0 0 
99.853405 134.349676 99.402670 0 0 0 
93.532211 138.983621 105.919343 0 0 0 
92.661694 138.467100 105.420247 0 0 0 
91.869650 138.116414 104.888110 0 0 0 
92.815972 139.457771 105.014109 0 0 0 
92.814138 140.568045 104.611100 0 0 0 
104.941298 141.184636 104.113959 0 0 0 
99.421875 132.032564 101.424047 0 0 0 
100.729167 129.634771 103.685475 0 0 0 
103.656602 137.055971 99.898171 0 0 0 
98.906250 131.260844 102.205243 0 0 0 
98.437500 130.376619 102.993760 0 0 0 
95.552647 133.526523 109.393418 0 0 0 
106.120449 140.001379 99.890399 0 0 0 
104.525042 137.935263 99.918856 0 0 0 
92.218539 134.500000 106.732197 0 0 0 
97.546875 132.917897 100.660759 0 0 0 
104.557495 133.562738 102.690386 0 0 0 
91.628443 133.431094 102.165796 0 0 0 
103.194977 138.718156 98.059946 0 0 0 
3 190 208 212 
3 157 191 159 
3 391 440 390 
3 440 391 439 
3 391 441 439 
3 439 441 435 
3 546 545 547 
3 237 546 547 
3 66 69 65 
3 70 84 38 
3 38 84 37 
3 412 411 415 
3 245 242 241 
3 562 121 463 
3 135 15 473 
3 382 384 391 
3 390 382 391 
3 416 417 415 
3 132 472 133 
3 368 269 268 
3 468 368 268 
3 2 137 470 
3 483 482 450 
3 88 87 125 
3 428 418 427 
3 373 370 371 
3 372 373 371 
3 304 276 359 
3 32 110 113 
3 87 124 125 
3 171 170 169 
3 220 219 221 
3 188 190 212 
3 236 240 244 
3 444 454 421 
3 227 376 238 
3 376 239 238 
3 133 130 132 
3 455 19 457 
3 139 118 521 
3 421 454 464 
3 83 93 94 
3 313 310 311 
3 85 71 79 
3 63 67 57 
3 279 278 273 
3 279 273 280 
3 381 382 383 
3 439 435 436 
3 387 409 349 
3 441 391 561 
3 251 249 250 
3 249 384 250 
3 558 253 541 
3 253 558 254 
3 559 418 428 
3 411 412 410 
3 18 8 17 
3 400 399 540 
3 411 414 415 
3 534 514 515 
3 514 504 515 
3 340 341 320 
3 138 197 196 
3 308 316 289 
3 307 308 289 
3 41 40 107 
3 40 134 107 
3 352 360 361 
3 360 359 361 
3 123 109 120 
3 237 244 240 
3 546 237 240 
3 167 149 370 
3 184 186 499 
3 459 465 519 
3 52 88 92 
3 525 461 429 
3 525 429 426 
3 481 376 465 
3 376 227 465 
3 352 520 351 
3 498 502 499 
3 193 190 189 
3 501 426 496 
3 426 429 496 
3 36 30 28 
3 36 28 27 
3 95 140 93 
3 32 33 31 
3 556 34 484 
3 171 539 165 
3 172 171 165 
3 255 393 542 
3 65 60 61 
3 431 443 442 
3 43 44 72 
3 75 43 72 
3 349 409 358 
3 188 212 213 
3 389 416 414 
3 385 389 414 
3 198 195 196 
3 372 374 523 
3 34 35 484 
3 80 52 92 
3 246 251 253 
3 251 246 249 
3 198 199 200 
3 191 150 167 
3 243 223 224 
3 21 14 11 
3 297 294 305 
3 294 288 305 
3 432 433 434 
3 293 269 277 
3 214 545 522 
3 362 366 520 
3 434 433 465 
3 433 435 465 
3 435 481 465 
3 231 233 244 
3 58 60 59 
3 220 221 527 
3 224 225 243 
3 225 224 377 
3 224 378 377 
3 530 529 120 
3 445 443 434 
3 465 227 519 
3 289 317 287 
3 295 350 294 
3 499 186 560 
3 560 186 177 
3 130 407 523 
3 129 130 523 
3 17 8 14 
3 5 471 6 
3 109 123 100 
3 123 221 100 
3 368 397 395 
3 524 424 464 
3 459 446 445 
3 77 95 93 
3 362 361 271 
3 426 501 425 
3 545 214 544 
3 276 304 303 
3 304 302 303 
3 99 44 43 
3 42 43 75 
3 67 56 57 
3 67 51 56 
3 47 67 63 
3 99 43 42 
3 99 42 105 
3 89 127 124 
3 87 89 124 
3 193 194 190 
3 413 466 550 
3 413 550 553 
3 523 407 193 
3 210 211 209 
3 375 142 141 
3 142 375 148 
3 557 552 463 
3 471 20 6 
3 134 39 112 
3 538 126 374 
3 153 168 526 
3 523 193 373 
3 91 472 127 
3 89 91 127 
3 407 194 193 
3 512 501 511 
3 120 531 530 
3 543 424 425 
3 338 337 339 
3 337 306 339 
3 333 487 350 
3 368 270 269 
3 210 207 205 
3 205 207 198 
3 116 114 115 
3 114 116 29 
3 372 523 373 
3 94 143 467 
3 314 313 312 
3 180 314 312 
3 93 140 94 
3 94 140 143 
3 255 257 393 
3 151 149 150 
3 163 155 160 
3 160 155 154 
3 521 372 371 
3 356 330 357 
3 367 520 366 
3 265 365 266 
3 30 31 33 
3 144 141 142 
3 85 118 139 
3 95 85 139 
3 19 14 21 
3 338 162 379 
3 239 235 238 
3 375 371 148 
3 29 30 33 
3 270 271 269 
3 271 272 269 
3 249 246 247 
3 144 143 141 
3 31 86 110 
3 30 86 31 
3 550 509 553 
3 553 509 535 
3 211 266 365 
3 506 507 550 
3 152 151 156 
3 117 25 116 
3 25 27 116 
3 419 437 422 
3 437 419 418 
3 418 438 437 
3 55 57 56 
3 427 418 419 
3 420 427 419 
3 155 153 152 
3 464 454 455 
3 333 488 487 
3 383 386 381 
3 17 14 19 
3 16 112 26 
3 68 65 78 
3 103 222 230 
3 121 115 478 
3 146 142 147 
3 404 147 405 
3 83 76 93 
3 77 93 76 
3 77 85 95 
3 137 136 106 
3 137 106 470 
3 254 204 259 
3 387 385 410 
3 208 207 209 
3 381 388 257 
3 551 535 516 
3 275 293 334 
3 293 275 267 
3 394 348 367 
3 348 346 367 
3 347 332 346 
3 346 332 520 
3 262 472 91 
3 383 389 385 
3 383 385 386 
3 356 355 331 
3 561 384 249 
3 447 518 377 
3 447 377 528 
3 229 233 231 
3 51 87 88 
3 346 348 349 
3 449 451 448 
3 451 445 448 
3 417 418 559 
3 252 251 255 
3 203 200 199 
3 200 203 202 
3 124 128 125 
3 247 245 241 
3 248 247 241 
3 256 248 239 
3 248 241 239 
3 441 256 481 
3 481 256 376 
3 129 132 130 
3 435 441 481 
3 29 116 28 
3 233 229 243 
3 243 229 223 
3 248 561 249 
3 433 436 435 
3 440 438 416 
3 378 220 527 
3 213 215 159 
3 440 439 438 
3 439 436 438 
3 52 51 88 
3 102 221 103 
3 221 219 103 
3 482 453 452 
3 453 442 452 
3 427 420 423 
3 352 361 362 
3 300 299 301 
3 210 205 206 
3 206 205 201 
3 443 452 442 
3 38 37 112 
3 547 544 133 
3 414 416 415 
3 433 432 437 
3 433 437 436 
3 397 402 395 
3 231 244 237 
3 394 367 396 
3 432 431 437 
3 123 120 529 
3 527 123 529 
3 421 464 423 
3 431 422 437 
3 18 17 455 
3 258 522 546 
3 436 437 438 
3 126 129 374 
3 454 453 455 
3 453 18 455 
3 531 137 2 
3 120 109 137 
3 0 2 470 
3 106 469 470 
3 153 406 404 
3 246 254 259 
3 50 89 87 
3 402 400 401 
3 506 513 512 
3 204 258 259 
3 472 132 131 
3 415 417 413 
3 413 417 559 
3 410 412 554 
3 209 212 208 
3 417 438 418 
3 438 417 416 
3 451 452 443 
3 363 271 270 
3 392 386 387 
3 392 387 348 
3 372 538 374 
3 10 11 9 
3 11 10 12 
3 388 386 392 
3 363 270 368 
3 212 218 213 
3 413 412 415 
3 367 364 396 
3 24 121 23 
3 362 363 366 
3 363 364 366 
3 363 362 271 
3 335 380 334 
3 527 221 123 
3 387 349 348 
3 409 410 554 
3 245 247 246 
3 299 297 305 
3 299 305 301 
3 220 378 224 
3 410 409 387 
3 392 348 394 
3 347 349 358 
3 402 393 394 
3 198 207 195 
3 195 208 194 
3 402 397 400 
3 238 235 234 
3 238 234 243 
3 364 367 366 
3 346 520 367 
3 330 328 351 
3 330 351 332 
3 158 157 215 
3 158 215 216 
3 389 390 440 
3 416 389 440 
3 131 128 124 
3 131 132 129 
3 390 389 382 
3 382 389 383 
3 212 209 218 
3 359 360 304 
3 529 530 458 
3 458 530 449 
3 163 160 162 
3 364 395 396 
3 392 394 388 
3 388 394 393 
3 257 388 393 
3 352 328 360 
3 385 414 411 
3 410 385 411 
3 360 328 325 
3 363 368 364 
3 368 395 364 
3 536 353 537 
3 336 338 379 
3 197 544 214 
3 345 263 265 
3 412 413 553 
3 412 553 554 
3 235 241 242 
3 235 239 241 
3 242 245 236 
3 44 45 64 
3 269 272 277 
3 219 224 222 
3 384 382 381 
3 131 127 472 
3 391 384 561 
3 259 245 246 
3 253 254 246 
3 384 381 257 
3 561 256 441 
3 507 509 550 
3 51 67 50 
3 249 247 248 
3 250 384 257 
3 251 250 257 
3 202 204 558 
3 545 546 522 
3 203 204 202 
3 126 128 129 
3 558 204 254 
3 540 558 532 
3 234 236 244 
3 91 89 90 
3 381 386 388 
3 300 327 299 
3 8 3 5 
3 256 561 248 
3 376 256 239 
3 385 387 386 
3 395 402 396 
3 349 347 346 
3 398 397 468 
3 468 397 368 
3 351 328 352 
3 330 356 329 
3 398 399 400 
3 394 396 402 
3 330 329 328 
3 207 210 209 
3 278 272 273 
3 272 278 277 
3 516 509 508 
3 357 347 358 
3 332 351 520 
3 327 298 299 
3 347 330 332 
3 362 520 352 
3 345 264 263 
3 195 207 208 
3 334 293 335 
3 397 398 400 
3 327 326 331 
3 298 327 331 
3 347 357 330 
3 295 297 296 
3 296 297 298 
3 251 252 253 
3 526 169 173 
3 361 359 272 
3 271 361 272 
3 290 289 288 
3 289 287 288 
3 295 294 297 
3 463 462 562 
3 251 257 255 
3 278 293 277 
3 192 373 193 
3 240 259 258 
3 305 285 301 
3 285 305 286 
3 156 158 154 
3 154 158 160 
3 77 71 85 
3 131 124 127 
3 235 242 236 
3 532 558 541 
3 370 148 371 
3 541 252 255 
3 541 255 542 
3 42 75 41 
3 232 231 237 
3 49 50 67 
3 230 122 103 
3 149 148 370 
3 335 379 380 
3 555 274 211 
3 219 222 103 
3 199 197 214 
3 274 555 468 
3 468 555 398 
3 274 266 211 
3 405 149 151 
3 555 211 206 
3 399 555 206 
3 211 210 206 
3 88 125 92 
3 128 131 129 
3 205 200 201 
3 275 265 266 
3 218 211 365 
3 209 211 218 
3 379 335 336 
3 258 546 240 
3 267 468 268 
3 266 274 267 
3 274 468 267 
3 430 552 498 
3 51 50 87 
3 267 275 266 
3 353 354 537 
3 542 402 401 
3 340 166 339 
3 295 296 333 
3 159 215 157 
3 541 253 252 
3 130 138 407 
3 402 542 393 
3 532 541 542 
3 401 532 542 
3 206 201 399 
3 201 540 399 
3 530 2 1 
3 450 530 1 
3 1 483 450 
3 48 49 67 
3 49 104 90 
3 231 228 229 
3 228 231 232 
3 232 237 547 
3 548 232 547 
3 398 555 399 
3 194 407 196 
3 205 198 200 
3 189 190 188 
3 102 101 221 
3 276 303 280 
3 538 92 126 
3 400 540 532 
3 532 401 400 
3 202 201 200 
3 540 201 202 
3 558 540 202 
3 233 234 244 
3 234 233 243 
3 548 262 232 
3 235 236 234 
3 472 548 133 
3 125 128 126 
3 195 194 196 
3 446 518 447 
3 138 196 407 
3 245 240 236 
3 245 259 240 
3 198 196 199 
3 223 229 228 
3 518 519 226 
3 431 444 422 
3 133 544 197 
3 225 226 243 
3 203 214 522 
3 138 130 133 
3 105 20 471 
3 472 262 548 
3 420 421 423 
3 92 125 126 
3 422 444 421 
3 422 421 420 
3 419 422 420 
3 404 146 147 
3 56 51 52 
3 79 80 118 
3 85 79 118 
3 208 190 194 
3 258 204 522 
3 522 204 203 
3 260 122 230 
3 122 260 261 
3 196 197 199 
3 203 199 214 
3 547 133 548 
3 547 545 544 
3 138 133 197 
3 448 458 449 
3 29 28 30 
3 45 98 46 
3 98 45 97 
3 518 226 225 
3 518 225 377 
3 102 122 104 
3 136 97 96 
3 56 52 53 
3 477 557 478 
3 526 406 153 
3 162 160 161 
3 160 158 161 
3 81 82 110 
3 110 82 111 
3 129 523 374 
3 530 531 2 
3 44 99 96 
3 262 91 261 
3 44 64 72 
3 89 50 49 
3 55 56 53 
3 539 169 168 
3 494 495 179 
3 146 489 490 
3 192 193 189 
3 146 404 489 
3 145 146 490 
3 187 183 184 
3 230 222 228 
3 459 519 518 
3 167 150 149 
3 134 40 39 
3 350 323 290 
3 52 80 53 
3 226 238 243 
3 262 260 232 
3 31 110 32 
3 223 228 222 
3 90 104 261 
3 261 104 122 
3 262 261 260 
3 90 261 91 
3 103 122 102 
3 228 260 230 
3 228 232 260 
3 34 33 35 
3 104 48 102 
3 136 96 106 
3 528 378 527 
3 456 457 524 
3 457 525 524 
3 89 49 90 
3 48 104 49 
3 37 84 36 
3 84 86 36 
3 377 378 528 
3 109 136 137 
3 443 445 451 
3 448 447 458 
3 453 444 442 
3 96 99 106 
3 221 101 100 
3 1 2 0 
3 445 434 459 
3 446 459 518 
3 426 425 524 
3 65 69 70 
3 59 72 58 
3 501 543 425 
3 482 451 450 
3 460 461 525 
3 461 460 22 
3 101 102 48 
3 227 238 226 
3 434 443 432 
3 443 431 432 
3 100 98 109 
3 46 98 100 
3 224 223 222 
3 224 219 220 
3 445 446 448 
3 446 447 448 
3 450 451 449 
3 458 528 529 
3 451 482 452 
3 447 528 458 
3 434 465 459 
3 78 38 39 
3 38 78 70 
3 529 528 527 
3 450 449 530 
3 19 460 457 
3 7 8 5 
3 519 227 226 
3 23 13 24 
3 431 442 444 
3 521 371 375 
3 454 444 453 
3 97 45 96 
3 20 9 6 
3 469 4 0 
3 469 0 470 
3 58 55 60 
3 511 510 505 
3 511 505 506 
3 106 99 105 
3 106 105 471 
3 47 46 100 
3 453 482 18 
3 482 483 18 
3 3 0 4 
3 3 4 5 
3 6 7 5 
3 120 137 531 
3 3 1 0 
3 483 1 3 
3 8 483 3 
3 483 8 18 
3 48 67 47 
3 35 33 32 
3 105 107 20 
3 471 5 4 
3 469 471 4 
3 469 106 471 
3 460 21 22 
3 63 46 47 
3 14 7 9 
3 7 6 9 
3 101 47 100 
3 47 101 48 
3 72 64 58 
3 65 70 78 
3 97 109 98 
3 109 97 136 
3 45 44 96 
3 57 55 58 
3 46 64 45 
3 63 57 64 
3 46 63 64 
3 14 9 11 
3 64 57 58 
3 70 69 84 
3 69 74 84 
3 40 78 39 
3 59 60 68 
3 68 60 65 
3 72 59 68 
3 121 117 115 
3 115 117 116 
3 116 27 28 
3 275 345 265 
3 467 145 493 
3 493 145 490 
3 20 10 9 
3 75 72 68 
3 81 86 84 
3 74 81 84 
3 457 460 525 
3 41 105 42 
3 161 380 379 
3 494 491 489 
3 491 490 489 
3 62 71 77 
3 76 62 77 
3 107 473 20 
3 41 75 40 
3 22 21 12 
3 13 22 12 
3 16 135 112 
3 135 134 112 
3 456 524 464 
3 187 184 185 
3 36 86 30 
3 105 41 107 
3 473 107 135 
3 135 107 134 
3 12 21 11 
3 478 115 556 
3 115 114 556 
3 13 16 24 
3 16 25 24 
3 425 424 524 
3 14 8 7 
3 473 10 20 
3 191 157 150 
3 525 426 524 
3 485 475 476 
3 12 10 15 
3 10 473 15 
3 15 13 12 
3 186 178 177 
3 536 358 409 
3 373 192 370 
3 23 461 22 
3 75 68 78 
3 75 78 40 
3 455 17 19 
3 185 557 477 
3 462 429 461 
3 456 464 455 
3 121 562 23 
3 455 457 456 
3 60 55 61 
3 314 315 313 
3 19 21 460 
3 143 140 141 
3 534 515 312 
3 311 534 312 
3 463 552 462 
3 462 552 430 
3 189 188 191 
3 111 82 83 
3 309 313 315 
3 313 309 310 
3 476 185 477 
3 185 502 557 
3 353 536 551 
3 466 559 428 
3 155 152 154 
3 403 165 340 
3 24 117 121 
3 184 502 185 
3 502 184 499 
3 66 65 61 
3 80 92 119 
3 119 92 538 
3 478 557 463 
3 557 502 552 
3 177 174 176 
3 486 549 492 
3 113 110 408 
3 486 113 408 
3 344 306 282 
3 282 306 283 
3 37 36 27 
3 498 499 500 
3 189 167 192 
3 25 117 24 
3 498 500 497 
3 27 25 26 
3 23 562 461 
3 461 562 462 
3 25 16 26 
3 499 560 500 
3 39 38 112 
3 187 475 474 
3 183 187 474 
3 478 556 477 
3 121 478 463 
3 309 308 307 
3 556 484 476 
3 556 476 477 
3 114 33 34 
3 556 114 34 
3 22 13 23 
3 16 13 15 
3 135 16 15 
3 29 33 114 
3 55 53 54 
3 169 170 173 
3 83 82 76 
3 178 183 474 
3 112 37 27 
3 26 112 27 
3 189 191 167 
3 156 151 157 
3 185 476 475 
3 145 142 146 
3 168 169 526 
3 142 145 144 
3 71 62 54 
3 79 71 54 
3 74 69 66 
3 479 517 181 
3 517 182 181 
3 408 110 111 
3 55 54 61 
3 554 536 409 
3 113 35 32 
3 110 86 81 
3 118 80 119 
3 301 285 284 
3 492 474 475 
3 76 82 73 
3 497 496 498 
3 498 496 430 
3 430 429 462 
3 73 74 66 
3 512 513 543 
3 62 76 66 
3 76 73 66 
3 62 61 54 
3 61 62 66 
3 279 280 282 
3 158 156 157 
3 142 148 147 
3 284 344 282 
3 151 150 157 
3 95 139 140 
3 521 375 141 
3 53 80 79 
3 53 79 54 
3 192 167 370 
3 108 83 94 
3 467 108 94 
3 467 143 144 
3 178 186 183 
3 119 521 118 
3 521 119 538 
3 372 521 538 
3 215 213 217 
3 217 265 263 
3 217 263 215 
3 380 264 345 
3 380 345 334 
3 403 172 165 
3 484 35 485 
3 515 503 312 
3 140 139 141 
3 139 521 141 
3 152 153 405 
3 153 404 405 
3 147 148 149 
3 145 467 144 
3 295 333 350 
3 489 404 406 
3 406 526 495 
3 489 406 495 
3 191 188 159 
3 479 181 480 
3 108 111 83 
3 549 486 408 
3 111 549 408 
3 549 111 108 
3 549 108 467 
3 81 73 82 
3 81 74 73 
3 535 551 536 
3 165 539 164 
3 168 155 539 
3 539 155 163 
3 344 285 286 
3 369 344 286 
3 511 506 512 
3 152 405 151 
3 147 149 405 
3 176 174 175 
3 339 341 340 
3 341 342 320 
3 507 506 505 
3 492 549 493 
3 467 493 549 
3 485 492 475 
3 185 475 187 
3 492 494 474 
3 175 517 314 
3 314 517 315 
3 292 335 293 
3 178 474 179 
3 474 494 179 
3 491 492 493 
3 490 491 493 
3 489 495 494 
3 217 365 265 
3 492 485 486 
3 533 487 488 
3 184 183 186 
3 492 491 494 
3 113 486 485 
3 35 113 485 
3 484 485 476 
3 174 173 182 
3 173 174 179 
3 168 153 155 
3 164 539 163 
3 291 337 336 
3 317 369 286 
3 317 286 287 
3 162 161 379 
3 215 263 216 
3 320 403 340 
3 188 213 159 
3 165 164 166 
3 319 321 320 
3 292 291 336 
3 309 322 308 
3 343 342 341 
3 560 503 500 
3 289 316 317 
3 316 318 317 
3 336 337 338 
3 321 403 320 
3 276 280 273 
3 290 323 307 
3 218 365 217 
3 171 181 170 
3 172 403 480 
3 403 321 480 
3 218 217 213 
3 359 276 273 
3 161 264 380 
3 516 508 514 
3 516 514 533 
3 342 318 320 
3 551 488 353 
3 269 293 268 
3 171 169 539 
3 178 179 174 
3 267 268 293 
3 338 339 166 
3 279 291 278 
3 275 334 345 
3 359 273 272 
3 336 335 292 
3 306 341 339 
3 264 216 263 
3 287 286 305 
3 288 287 305 
3 158 216 161 
3 161 216 264 
3 281 301 284 
3 164 163 166 
3 166 340 165 
3 323 534 311 
3 534 323 487 
3 154 152 156 
3 292 293 278 
3 282 281 284 
3 166 163 162 
3 166 162 338 
3 327 324 326 
3 329 356 326 
3 560 180 503 
3 180 312 503 
3 282 280 281 
3 283 279 282 
3 291 292 278 
3 350 290 294 
3 306 343 341 
3 343 306 344 
3 369 343 344 
3 281 303 301 
3 176 560 177 
3 283 337 291 
3 337 283 306 
3 280 303 281 
3 357 355 356 
3 319 320 318 
3 316 308 319 
3 316 319 318 
3 291 279 283 
3 301 303 300 
3 304 360 324 
3 324 360 325 
3 354 353 333 
3 353 488 333 
3 324 327 302 
3 304 324 302 
3 550 466 513 
3 550 513 506 
3 327 300 302 
3 326 325 328 
3 300 303 302 
3 297 299 298 
3 289 290 307 
3 294 290 288 
3 355 354 331 
3 284 285 344 
3 323 350 487 
3 170 181 182 
3 369 318 342 
3 296 354 333 
3 369 342 343 
3 317 318 369 
3 498 552 502 
3 329 326 328 
3 322 319 308 
3 533 534 487 
3 307 310 309 
3 326 324 325 
3 172 181 171 
3 480 321 479 
3 322 309 315 
3 526 173 495 
3 495 173 179 
3 517 479 315 
3 319 479 321 
3 479 319 322 
3 479 322 315 
3 551 533 488 
3 182 517 175 
3 173 170 182 
3 174 182 175 
3 172 480 181 
3 534 533 514 
3 424 423 464 
3 500 503 504 
3 356 331 326 
3 357 358 537 
3 554 553 535 
3 424 427 423 
3 537 358 536 
3 323 310 307 
3 355 357 537 
3 537 354 355 
3 509 507 508 
3 543 427 424 
3 507 505 508 
3 354 296 331 
3 331 296 298 
3 413 559 466 
3 501 512 543 
3 504 508 505 
3 543 513 428 
3 428 427 543 
3 508 504 514 
3 535 536 554 
3 510 497 500 
3 516 535 509 
3 496 429 430 
3 177 178 174 
3 428 513 466 
3 497 501 496 
3 501 497 511 
3 511 497 510 
3 510 500 504 
3 505 510 504 
3 176 175 314 
3 516 533 551 
3 313 311 312 
3 504 503 515 
3 560 176 180 
3 180 176 314 
3 311 310 323 
