ply
format ascii 1.0
comment created by MATLAB ply_write
element vertex 488
property float x
property float y
property float z
property char red
property char green
property char blue
element face 972
property list uchar short vertex_indices
end_header
93.678251 135.204224 100.279577 0 0 0 
94.677865 134.568254 100.293726 0 0 0 
95.558036 134.996472 100.178576 0 0 0 
96.418800 134.426032 100.432307 0 0 0 
97.463808 135.046949 100.288945 0 0 0 
98.229856 135.633329 100.401583 0 0 0 
98.460009 134.494869 100.833205 0 0 0 
98.746968 133.939913 101.642372 0 0 0 
99.400582 136.082747 100.823639 0 0 0 
99.716296 134.634017 101.425672 0 0 0 
93.750000 134.006468 100.887114 0 0 0 
92.629063 134.591410 100.651769 0 0 0 
94.784105 133.889810 101.039542 0 0 0 
95.683594 133.757608 101.423828 0 0 0 
96.495536 133.549842 102.288949 0 0 0 
97.441080 133.530225 102.622636 0 0 0 
98.410434 133.529682 103.073460 0 0 0 
99.315374 133.527182 103.666856 0 0 0 
100.274598 133.573534 104.159075 0 0 0 
101.198672 133.713196 104.386705 0 0 0 
102.111883 133.738957 105.075964 0 0 0 
103.336945 134.427244 105.065260 0 0 0 
102.177233 134.377180 103.978988 0 0 0 
96.015625 133.364881 103.203125 0 0 0 
96.969144 133.199948 103.961161 0 0 0 
97.864583 133.166022 104.384923 0 0 0 
98.698369 133.184053 104.720488 0 0 0 
99.364758 132.985222 105.480387 0 0 0 
95.156250 133.476906 102.583292 0 0 0 
94.151786 133.566101 102.161254 0 0 0 
93.301339 133.480896 102.686957 0 0 0 
92.343750 133.429327 103.141793 0 0 0 
91.339237 133.448949 103.507639 0 0 0 
90.443772 133.465641 104.041547 0 0 0 
90.609664 133.014793 104.994066 0 0 0 
89.598297 133.561454 104.593028 0 0 0 
88.674191 133.953721 104.805048 0 0 0 
88.076703 134.581662 105.409824 0 0 0 
88.143430 134.875304 106.437640 0 0 0 
88.763634 133.665968 105.916486 0 0 0 
89.311778 134.165331 103.619404 0 0 0 
89.956014 134.513776 102.648490 0 0 0 
102.449993 133.481409 105.976551 0 0 0 
103.607160 133.749252 106.343554 0 0 0 
103.601415 133.186762 107.438492 0 0 0 
102.583986 132.774845 107.314534 0 0 0 
101.702251 132.746539 106.823498 0 0 0 
100.638898 132.726564 106.359356 0 0 0 
104.567243 133.425670 107.804288 0 0 0 
104.734769 133.012981 108.770439 0 0 0 
104.720829 134.079626 106.810939 0 0 0 
105.539729 134.102793 107.667800 0 0 0 
105.887588 133.805836 108.741743 0 0 0 
106.275883 134.002869 109.739583 0 0 0 
105.867330 133.829276 110.631798 0 0 0 
106.674918 134.916667 109.609375 0 0 0 
106.748085 135.583333 108.671875 0 0 0 
106.286503 134.974539 107.808799 0 0 0 
105.294304 133.963382 111.654987 0 0 0 
105.405962 135.121273 111.555292 0 0 0 
105.336041 135.963214 111.127161 0 0 0 
106.182270 135.555494 110.493538 0 0 0 
104.422460 136.000916 111.788484 0 0 0 
102.658332 131.999267 108.047445 0 0 0 
103.586539 132.582418 108.237271 0 0 0 
101.576454 131.529740 107.755790 0 0 0 
100.755064 131.668727 107.292956 0 0 0 
99.891846 131.929519 106.788371 0 0 0 
99.301144 130.859189 107.477353 0 0 0 
98.944650 132.034578 106.382583 0 0 0 
97.909905 132.248265 105.795920 0 0 0 
97.083333 132.364923 105.372586 0 0 0 
104.840672 132.543494 109.700997 0 0 0 
103.850223 131.984238 108.967967 0 0 0 
104.720956 132.080706 110.558036 0 0 0 
104.717530 132.655397 111.598404 0 0 0 
104.246337 131.376748 111.596710 0 0 0 
103.869683 131.469829 112.429500 0 0 0 
103.484559 130.467817 112.588098 0 0 0 
103.488838 132.489554 113.082822 0 0 0 
103.542755 129.976390 111.342673 0 0 0 
96.218266 132.592310 104.872096 0 0 0 
95.531250 132.940779 104.306033 0 0 0 
94.620536 133.216772 103.608547 0 0 0 
93.664773 133.015840 104.090044 0 0 0 
93.353365 132.435855 104.868694 0 0 0 
105.114034 136.810829 110.591210 0 0 0 
104.055641 137.345377 110.599203 0 0 0 
103.437313 137.125871 111.358013 0 0 0 
103.144368 136.440952 112.287823 0 0 0 
102.562112 135.936484 112.965841 0 0 0 
103.581528 135.472811 112.712787 0 0 0 
101.624441 135.845329 113.417724 0 0 0 
102.210832 136.971325 112.238569 0 0 0 
101.683158 137.581666 111.601564 0 0 0 
102.197961 138.121467 110.607634 0 0 0 
100.659087 138.103792 111.271372 0 0 0 
104.051255 137.878580 109.650510 0 0 0 
103.063309 138.071496 110.114852 0 0 0 
104.994182 137.659154 109.208384 0 0 0 
105.505177 137.804718 108.260614 0 0 0 
105.944509 137.752087 107.343750 0 0 0 
105.965617 137.530887 106.498081 0 0 0 
105.541744 137.625984 105.408487 0 0 0 
105.327583 136.464247 105.844576 0 0 0 
105.606615 135.465776 106.630914 0 0 0 
104.583995 135.013215 105.823064 0 0 0 
105.883252 137.079320 109.397837 0 0 0 
106.324181 136.338781 109.738185 0 0 0 
106.457679 136.856208 108.339844 0 0 0 
106.358037 136.333333 107.355707 0 0 0 
100.366760 130.713677 107.828708 0 0 0 
100.721759 129.953148 108.455180 0 0 0 
101.723086 130.494611 108.510945 0 0 0 
90.797825 133.896142 102.609845 0 0 0 
91.796875 133.796987 102.130343 0 0 0 
92.879464 133.804729 101.560373 0 0 0 
91.867354 134.360282 101.220796 0 0 0 
91.021562 134.626086 101.587129 0 0 0 
90.562329 135.428571 101.790575 0 0 0 
90.410285 136.659946 102.134770 0 0 0 
90.756239 137.502892 102.144487 0 0 0 
91.321665 136.042155 101.265739 0 0 0 
92.411470 136.005375 100.685537 0 0 0 
91.757128 137.947256 101.535858 0 0 0 
91.845916 138.855306 102.318160 0 0 0 
92.749388 138.844405 101.638563 0 0 0 
93.763910 139.002210 101.330746 0 0 0 
94.609375 139.272444 101.796875 0 0 0 
94.640186 138.496099 100.606581 0 0 0 
95.625000 139.132049 101.183078 0 0 0 
96.609375 138.850834 100.709836 0 0 0 
97.566964 139.092747 101.166522 0 0 0 
98.437500 139.218322 101.718750 0 0 0 
99.296875 139.269867 102.265625 0 0 0 
99.504645 138.825376 101.355509 0 0 0 
100.312500 139.209398 102.564076 0 0 0 
101.183036 139.235681 103.086824 0 0 0 
102.187500 139.245587 103.593750 0 0 0 
102.132383 138.564050 102.485609 0 0 0 
103.125000 139.215190 104.074259 0 0 0 
104.267670 138.908586 104.129829 0 0 0 
103.151799 138.820603 103.227328 0 0 0 
103.392857 139.359643 105.066964 0 0 0 
104.140625 139.306157 106.015625 0 0 0 
103.515625 139.347424 106.796875 0 0 0 
102.578125 139.400023 107.265625 0 0 0 
101.651786 139.433002 107.611607 0 0 0 
100.703125 139.436158 108.203125 0 0 0 
99.765625 139.430335 108.671875 0 0 0 
98.984375 139.377726 109.296875 0 0 0 
97.968750 139.448892 108.750000 0 0 0 
97.109375 139.475791 108.203125 0 0 0 
96.160714 139.483728 107.611607 0 0 0 
95.234375 139.476234 107.265625 0 0 0 
94.804688 139.485056 106.406250 0 0 0 
94.140625 139.488360 105.546875 0 0 0 
94.765625 139.496175 104.609375 0 0 0 
95.546875 139.493433 103.984375 0 0 0 
96.562500 139.498905 104.531250 0 0 0 
97.421875 139.499490 105.078125 0 0 0 
98.359375 139.499527 105.546875 0 0 0 
98.906250 139.499634 106.406250 0 0 0 
97.890625 139.498843 106.953125 0 0 0 
96.927083 139.499062 106.510417 0 0 0 
95.937500 139.499378 105.520833 0 0 0 
99.921875 139.498020 105.859375 0 0 0 
99.296875 139.494699 104.921875 0 0 0 
100.781250 139.491531 106.640625 0 0 0 
99.609375 139.491909 107.343750 0 0 0 
98.515625 139.486367 107.890625 0 0 0 
98.046875 139.492016 104.140625 0 0 0 
97.031250 139.486755 103.593750 0 0 0 
101.171875 139.485860 105.390625 0 0 0 
102.343750 139.465655 105.989583 0 0 0 
96.093750 139.472788 103.125000 0 0 0 
93.281250 139.472269 105.000000 0 0 0 
93.750000 139.475843 104.062500 0 0 0 
100.312500 139.463201 104.296875 0 0 0 
99.062500 139.456781 103.541667 0 0 0 
94.296875 139.451845 103.203125 0 0 0 
95.234375 139.427656 102.578125 0 0 0 
97.734375 139.426480 102.656250 0 0 0 
96.562500 139.372635 102.053571 0 0 0 
101.718750 139.433696 104.531250 0 0 0 
92.734375 139.402071 106.015625 0 0 0 
93.359375 139.399501 106.796875 0 0 0 
93.828125 139.348242 107.734375 0 0 0 
94.687500 139.382031 108.281250 0 0 0 
95.625000 139.402559 108.750000 0 0 0 
96.562500 139.386274 109.218750 0 0 0 
92.343750 139.407187 104.531250 0 0 0 
92.734375 139.386012 103.515625 0 0 0 
97.500000 139.322545 109.687500 0 0 0 
93.359375 139.327186 102.578125 0 0 0 
91.757812 139.286811 105.585938 0 0 0 
98.616359 138.564088 100.781629 0 0 0 
97.790840 138.020758 100.348530 0 0 0 
97.610656 136.750000 100.234402 0 0 0 
98.364384 139.107907 110.370719 0 0 0 
99.569928 138.818454 110.709275 0 0 0 
101.392663 139.106429 109.526317 0 0 0 
100.468234 139.124480 109.913472 0 0 0 
102.222298 139.109659 109.007858 0 0 0 
103.231214 139.074761 108.387317 0 0 0 
103.085767 138.631891 109.329766 0 0 0 
104.078266 139.000997 107.826758 0 0 0 
104.241452 138.494328 108.577225 0 0 0 
91.406250 139.206190 104.062500 0 0 0 
90.365485 138.605372 104.062500 0 0 0 
90.153366 138.456356 105.000000 0 0 0 
91.018007 138.807394 103.109027 0 0 0 
96.562500 137.642857 100.155474 0 0 0 
95.546875 137.083333 100.128782 0 0 0 
94.687500 136.388889 100.162933 0 0 0 
90.176196 137.909051 103.178463 0 0 0 
95.093147 139.104284 109.834357 0 0 0 
96.026786 139.089710 110.233483 0 0 0 
94.135075 139.059822 109.306965 0 0 0 
93.139096 138.977538 108.610889 0 0 0 
97.065165 138.906171 110.721177 0 0 0 
93.724868 138.438134 109.942007 0 0 0 
92.324345 138.446413 108.646190 0 0 0 
91.608964 138.089747 108.301459 0 0 0 
94.970018 138.608386 110.575268 0 0 0 
96.098635 138.485923 111.085151 0 0 0 
95.581730 137.684413 111.531140 0 0 0 
96.558294 137.465911 111.984546 0 0 0 
94.678505 137.886488 111.011031 0 0 0 
93.768892 137.540621 110.727708 0 0 0 
93.233038 136.699138 110.995188 0 0 0 
94.221966 136.747781 111.559212 0 0 0 
95.207879 136.721799 112.067083 0 0 0 
94.636493 135.870134 112.575707 0 0 0 
93.790412 135.540609 112.486493 0 0 0 
95.661177 135.961488 113.014822 0 0 0 
96.528691 135.740968 113.566566 0 0 0 
92.766043 134.927046 112.378412 0 0 0 
92.712097 134.131905 112.854191 0 0 0 
97.447863 135.650635 113.851682 0 0 0 
98.139205 134.923592 114.665979 0 0 0 
98.437500 135.945107 113.620997 0 0 0 
99.322917 135.662051 113.933594 0 0 0 
98.906250 136.745132 112.957880 0 0 0 
100.439990 135.927975 113.595079 0 0 0 
99.750000 134.887562 114.638623 0 0 0 
98.937500 137.602024 112.085144 0 0 0 
100.970763 134.597806 114.565141 0 0 0 
101.279298 133.697671 114.788326 0 0 0 
102.938606 131.090909 113.516469 0 0 0 
104.972163 138.781869 107.312868 0 0 0 
105.479450 138.737357 106.406250 0 0 0 
100.722656 133.242501 105.523797 0 0 0 
92.260778 139.084962 107.426380 0 0 0 
91.359825 138.600911 107.393386 0 0 0 
90.874446 138.816293 106.234843 0 0 0 
88.379171 134.926596 104.478024 0 0 0 
88.639744 136.003273 104.626681 0 0 0 
89.252344 137.205204 104.511007 0 0 0 
89.316103 136.621529 103.518796 0 0 0 
88.965937 135.364318 103.543510 0 0 0 
89.073184 136.990817 105.620603 0 0 0 
95.566406 138.318476 100.308109 0 0 0 
105.061901 138.985215 105.385275 0 0 0 
97.073864 133.915372 101.103335 0 0 0 
102.777625 131.086351 108.791710 0 0 0 
104.099277 130.974825 110.605433 0 0 0 
103.590491 130.890611 109.694490 0 0 0 
88.588506 135.129875 107.322767 0 0 0 
89.164380 134.975042 108.414394 0 0 0 
89.286618 134.091019 108.878721 0 0 0 
89.263265 133.000000 108.332047 0 0 0 
89.538416 132.023936 108.042682 0 0 0 
89.794380 131.003472 108.241305 0 0 0 
90.397275 131.347184 107.374868 0 0 0 
90.494678 131.960371 106.552433 0 0 0 
91.399359 131.384418 106.746302 0 0 0 
92.276786 131.041329 107.038033 0 0 0 
92.718750 130.483259 107.577030 0 0 0 
92.753906 129.776325 108.245551 0 0 0 
93.281250 131.383135 106.413079 0 0 0 
94.114583 131.734386 105.778513 0 0 0 
94.218750 130.941232 107.085024 0 0 0 
95.156250 131.385240 106.415944 0 0 0 
96.160714 131.024619 107.025656 0 0 0 
95.718750 130.474712 107.568071 0 0 0 
95.625000 129.737963 108.259061 0 0 0 
95.531250 129.023542 109.009388 0 0 0 
102.729303 134.880626 113.583176 0 0 0 
102.612808 133.900243 113.912006 0 0 0 
93.743233 136.937335 100.363206 0 0 0 
89.504280 130.543378 109.249973 0 0 0 
90.079490 129.785743 109.984117 0 0 0 
90.468573 129.830437 108.745798 0 0 0 
91.363579 130.082295 108.093314 0 0 0 
89.596163 131.440160 109.722923 0 0 0 
89.750140 132.492945 109.642950 0 0 0 
89.910459 133.500000 109.874419 0 0 0 
90.443568 134.613755 110.269187 0 0 0 
90.453666 132.847850 110.619828 0 0 0 
90.287697 135.417103 109.489777 0 0 0 
93.227746 138.054060 100.789253 0 0 0 
89.797088 137.813195 106.036529 0 0 0 
90.290346 137.818346 107.035812 0 0 0 
95.062500 132.145719 105.216483 0 0 0 
96.064614 131.769261 105.871352 0 0 0 
97.002942 131.467599 106.492838 0 0 0 
98.020833 131.291901 106.890946 0 0 0 
97.812500 130.494662 107.598635 0 0 0 
104.141404 134.556817 112.750817 0 0 0 
104.169731 133.550000 112.666937 0 0 0 
88.539136 135.964451 105.909155 0 0 0 
89.096810 136.448853 106.793710 0 0 0 
89.744763 136.941046 107.359809 0 0 0 
89.368595 135.944722 107.820140 0 0 0 
90.714323 137.581863 107.882343 0 0 0 
100.225973 133.355665 115.292814 0 0 0 
99.120203 132.828479 115.713172 0 0 0 
98.710938 133.970349 115.254522 0 0 0 
99.754909 131.888889 115.738790 0 0 0 
99.337740 130.958769 115.818277 0 0 0 
99.479241 129.738256 115.370234 0 0 0 
98.575033 129.341216 115.465284 0 0 0 
98.441566 130.471729 115.871900 0 0 0 
97.562478 129.962709 115.859285 0 0 0 
96.477820 130.555556 115.896387 0 0 0 
98.134421 128.496846 115.337419 0 0 0 
97.330679 127.633563 115.307157 0 0 0 
98.367835 127.428410 114.878705 0 0 0 
99.309751 127.506011 114.390372 0 0 0 
99.484132 128.680386 114.716006 0 0 0 
100.453767 130.550000 115.364731 0 0 0 
95.616959 130.958333 115.736994 0 0 0 
101.309097 130.370711 114.785721 0 0 0 
101.641770 131.423077 114.755072 0 0 0 
101.074678 132.453759 115.140643 0 0 0 
99.417396 126.601058 113.873796 0 0 0 
99.272253 126.030695 112.916667 0 0 0 
100.228335 126.624409 112.500000 0 0 0 
100.315277 126.972232 111.616474 0 0 0 
99.288639 126.527142 111.610718 0 0 0 
100.202473 127.605586 110.514776 0 0 0 
101.275910 127.666056 111.147671 0 0 0 
100.315226 127.129553 113.371794 0 0 0 
98.536023 126.445888 114.363558 0 0 0 
97.515166 125.949874 114.343996 0 0 0 
96.406250 125.471920 114.109263 0 0 0 
98.475862 126.049858 111.876315 0 0 0 
97.552313 125.554345 112.016276 0 0 0 
96.328125 125.789820 111.540107 0 0 0 
97.366572 125.133257 113.004229 0 0 0 
96.657339 124.817530 113.045977 0 0 0 
96.110985 124.949380 111.997306 0 0 0 
95.070210 124.894533 112.447449 0 0 0 
95.572015 124.934664 113.487543 0 0 0 
94.756456 125.812667 111.789643 0 0 0 
94.314003 125.593102 113.062500 0 0 0 
94.714179 125.795677 113.853983 0 0 0 
95.205552 126.441730 114.551631 0 0 0 
94.487275 127.547874 114.769489 0 0 0 
95.721459 127.613025 115.285063 0 0 0 
96.153634 128.671114 115.701760 0 0 0 
96.963764 128.998280 115.752626 0 0 0 
95.144750 129.157692 115.524843 0 0 0 
94.310243 128.937500 115.092243 0 0 0 
93.910445 130.000000 114.837858 0 0 0 
94.375668 131.000000 115.168491 0 0 0 
93.919231 132.000000 114.783384 0 0 0 
94.151902 132.914447 114.768095 0 0 0 
93.295546 131.500000 114.247914 0 0 0 
95.101695 133.609065 115.012192 0 0 0 
96.063276 134.070989 115.063541 0 0 0 
93.104601 132.582632 113.831512 0 0 0 
93.439917 133.519077 113.870137 0 0 0 
93.781071 134.507541 113.628029 0 0 0 
94.327418 133.902032 114.431393 0 0 0 
94.705221 134.948541 113.881727 0 0 0 
95.746571 134.908355 114.378052 0 0 0 
95.091007 132.352228 115.455178 0 0 0 
96.099302 132.743685 115.674285 0 0 0 
97.265625 133.718797 115.389865 0 0 0 
97.031250 132.496942 115.844790 0 0 0 
98.015625 132.141351 115.915108 0 0 0 
96.972656 134.682987 114.811340 0 0 0 
92.516370 131.611111 113.348976 0 0 0 
91.868390 131.555162 112.599223 0 0 0 
91.806906 130.437500 112.817602 0 0 0 
91.265401 131.080771 112.088345 0 0 0 
90.889701 129.937500 111.820550 0 0 0 
90.285881 130.908819 111.014585 0 0 0 
91.205577 128.937983 111.967600 0 0 0 
90.954149 128.724077 111.059946 0 0 0 
91.802614 132.500000 112.214655 0 0 0 
91.271352 133.189617 111.484485 0 0 0 
92.477240 133.017069 112.933008 0 0 0 
91.372965 128.593577 110.054410 0 0 0 
92.297082 128.119925 110.140226 0 0 0 
92.494772 127.516051 111.290597 0 0 0 
92.250323 136.489646 110.419267 0 0 0 
99.891890 129.455262 108.708373 0 0 0 
98.906250 129.891657 108.173893 0 0 0 
92.872280 135.724609 111.584530 0 0 0 
91.976210 135.369927 111.229283 0 0 0 
91.493504 134.369129 111.474776 0 0 0 
100.293377 128.068936 113.897702 0 0 0 
101.070808 128.356883 113.391749 0 0 0 
101.618040 127.898657 112.124656 0 0 0 
101.302832 128.271272 110.183058 0 0 0 
101.646987 128.994311 109.641724 0 0 0 
100.701718 129.028977 109.245477 0 0 0 
102.158616 129.789877 109.259145 0 0 0 
99.923259 133.912782 102.575986 0 0 0 
100.827720 134.337362 102.693076 0 0 0 
104.366831 138.004366 103.823346 0 0 0 
105.253620 138.362162 104.678871 0 0 0 
92.443352 131.808016 105.781430 0 0 0 
90.026497 132.793198 105.911555 0 0 0 
89.511984 132.781389 106.928989 0 0 0 
88.781150 133.678038 107.314879 0 0 0 
92.001973 129.125000 113.010580 0 0 0 
92.121792 127.899022 112.448508 0 0 0 
101.914665 128.918371 112.941131 0 0 0 
102.849356 129.607881 112.550892 0 0 0 
102.606067 128.937462 111.401816 0 0 0 
102.471369 130.132090 113.613163 0 0 0 
101.721448 129.722858 113.985098 0 0 0 
100.672749 129.352492 114.447229 0 0 0 
98.496094 138.457223 111.263400 0 0 0 
90.923799 131.952616 111.368042 0 0 0 
97.347430 136.733850 112.783690 0 0 0 
98.347415 125.714491 113.499277 0 0 0 
104.603451 137.202736 104.545484 0 0 0 
98.906250 128.967884 109.088706 0 0 0 
97.916667 129.345276 108.690336 0 0 0 
97.910156 128.465245 109.483357 0 0 0 
97.734375 127.738143 110.140558 0 0 0 
97.875000 126.900391 110.998926 0 0 0 
98.989858 127.289790 110.696327 0 0 0 
99.460227 128.217090 109.735998 0 0 0 
102.328606 132.557964 114.184884 0 0 0 
98.856774 137.000000 100.557251 0 0 0 
93.185305 129.090909 114.205991 0 0 0 
93.763409 127.976249 114.447057 0 0 0 
93.840785 126.977081 113.906790 0 0 0 
93.283142 126.875767 112.985994 0 0 0 
93.781043 126.469284 111.987454 0 0 0 
96.328125 136.000000 100.115431 0 0 0 
92.760417 128.980698 109.117307 0 0 0 
93.906250 129.296226 108.742068 0 0 0 
93.750000 128.432589 109.547038 0 0 0 
94.171875 127.687479 110.261008 0 0 0 
97.585227 137.914675 111.750134 0 0 0 
91.964698 137.147455 101.115570 0 0 0 
100.300094 135.642473 101.464513 0 0 0 
101.098456 135.396708 102.181535 0 0 0 
101.289971 136.580931 101.941110 0 0 0 
101.684297 135.010152 102.944502 0 0 0 
102.183216 135.816408 102.984923 0 0 0 
102.246994 137.135609 102.530945 0 0 0 
91.836566 137.354793 109.295115 0 0 0 
102.699500 129.414140 110.179847 0 0 0 
92.758349 130.416667 113.804127 0 0 0 
90.847175 136.794994 108.839865 0 0 0 
95.109375 128.293818 109.625930 0 0 0 
95.795455 127.524044 110.372880 0 0 0 
95.156250 126.776314 111.134682 0 0 0 
89.735817 135.944444 102.654748 0 0 0 
92.784130 137.883059 109.653580 0 0 0 
89.984544 135.839059 108.736504 0 0 0 
96.605114 126.842448 111.002676 0 0 0 
103.300915 137.544906 103.176535 0 0 0 
103.174588 136.489234 103.615117 0 0 0 
103.100927 135.394998 104.105231 0 0 0 
91.238570 135.880309 110.043395 0 0 0 
93.636646 127.205871 111.044530 0 0 0 
96.914062 129.760030 108.246541 0 0 0 
99.642775 137.659679 100.888683 0 0 0 
100.598955 137.481971 101.382572 0 0 0 
100.958950 138.524726 101.832941 0 0 0 
96.634615 128.439148 109.502802 0 0 0 
91.311868 132.261021 105.567946 0 0 0 
96.538943 126.526865 114.868765 0 0 0 
94.254808 130.055478 107.952436 0 0 0 
91.959889 132.821256 104.604687 0 0 0 
92.827299 128.009129 113.511339 0 0 0 
91.428397 129.164490 109.251533 0 0 0 
104.174097 136.093452 104.802854 0 0 0 
100.437500 137.048884 112.597622 0 0 0 
3 397 391 396 
3 294 276 277 
3 277 276 415 
3 272 271 417 
3 387 389 388 
3 294 277 278 
3 474 396 450 
3 396 474 397 
3 356 444 445 
3 444 356 443 
3 304 85 84 
3 325 332 363 
3 406 338 339 
3 406 339 342 
3 212 213 262 
3 417 39 416 
3 463 448 287 
3 420 444 484 
3 202 201 148 
3 422 423 80 
3 80 423 460 
3 31 32 115 
3 32 114 115 
3 39 36 35 
3 39 35 416 
3 397 444 420 
3 386 388 390 
3 419 386 390 
3 13 14 28 
3 391 420 390 
3 276 480 415 
3 221 218 219 
3 467 221 219 
3 450 396 449 
3 328 326 327 
3 46 47 252 
3 286 448 482 
3 33 483 34 
3 483 480 34 
3 357 358 443 
3 304 305 283 
3 124 121 125 
3 125 121 211 
3 447 279 448 
3 182 172 171 
3 182 171 179 
3 141 143 263 
3 208 211 209 
3 114 32 33 
3 463 449 448 
3 92 90 93 
3 265 73 267 
3 231 228 229 
3 297 270 271 
3 296 297 271 
3 377 370 371 
3 357 443 356 
3 420 391 397 
3 276 275 480 
3 452 290 123 
3 275 416 480 
3 416 34 480 
3 84 31 30 
3 280 282 278 
3 278 282 482 
3 448 279 482 
3 14 23 28 
3 292 391 388 
3 388 391 390 
3 418 270 269 
3 447 396 485 
3 396 395 485 
3 157 156 165 
3 153 154 189 
3 196 135 476 
3 41 114 33 
3 298 270 297 
3 301 129 290 
3 312 314 313 
3 260 466 41 
3 118 119 122 
3 332 325 381 
3 190 152 189 
3 125 126 124 
3 40 41 33 
3 10 29 116 
3 443 358 359 
3 441 365 461 
3 124 452 121 
3 32 483 33 
3 436 469 435 
3 104 105 106 
3 143 174 145 
3 133 132 182 
3 132 183 182 
3 359 358 360 
3 393 392 394 
3 238 393 394 
3 350 351 348 
3 462 468 300 
3 364 441 442 
3 348 436 347 
3 209 215 258 
3 83 23 82 
3 23 83 28 
3 465 450 464 
3 219 253 222 
3 197 196 440 
3 196 476 440 
3 84 483 31 
3 483 84 85 
3 446 214 213 
3 353 354 356 
3 353 356 355 
3 238 403 393 
3 16 411 17 
3 56 108 55 
3 79 439 249 
3 354 352 351 
3 15 7 16 
3 282 280 281 
3 226 224 228 
3 156 185 186 
3 228 221 229 
3 238 374 237 
3 138 139 137 
3 13 28 12 
3 28 29 12 
3 442 359 364 
3 33 35 40 
3 487 246 243 
3 22 412 456 
3 423 422 421 
3 35 34 416 
3 78 422 80 
3 443 359 442 
3 52 48 51 
3 394 372 373 
3 305 306 284 
3 203 204 146 
3 146 204 145 
3 48 50 51 
3 226 227 225 
3 446 198 4 
3 208 209 210 
3 475 479 287 
3 475 287 286 
3 374 375 376 
3 332 379 378 
3 474 450 465 
3 272 295 296 
3 272 296 271 
3 96 94 95 
3 193 190 217 
3 473 462 300 
3 35 33 34 
3 77 249 78 
3 128 127 194 
3 221 228 224 
3 216 221 224 
3 316 317 319 
3 449 447 448 
3 5 8 6 
3 194 192 177 
3 225 220 217 
3 143 141 140 
3 363 359 360 
3 359 363 364 
3 203 147 148 
3 147 203 146 
3 326 324 362 
3 30 29 83 
3 30 83 84 
3 159 165 160 
3 479 464 463 
3 1 12 10 
3 1 10 0 
3 380 240 383 
3 240 380 318 
3 127 128 129 
3 301 127 129 
3 40 260 41 
3 480 483 415 
3 281 280 415 
3 99 100 207 
3 100 250 207 
3 137 139 478 
3 478 139 458 
3 164 163 161 
3 161 163 162 
3 431 103 104 
3 23 14 15 
3 23 15 24 
3 101 250 100 
3 53 54 72 
3 106 105 50 
3 184 138 137 
3 470 471 458 
3 205 97 207 
3 204 205 207 
3 161 162 167 
3 144 145 250 
3 145 206 250 
3 49 48 52 
3 445 397 474 
3 397 445 444 
3 325 361 362 
3 330 321 322 
3 330 322 326 
3 273 291 295 
3 273 295 272 
3 303 302 313 
3 121 122 120 
3 340 436 437 
3 473 459 462 
3 260 259 466 
3 36 40 35 
3 118 115 114 
3 219 218 187 
3 187 218 188 
3 483 32 31 
3 368 370 375 
3 39 37 36 
3 273 274 294 
3 293 273 294 
3 358 481 360 
3 122 117 118 
3 117 115 118 
3 279 294 278 
3 230 229 467 
3 402 401 398 
3 401 402 237 
3 116 30 115 
3 30 31 115 
3 209 211 215 
3 156 157 176 
3 376 235 233 
3 354 346 357 
3 346 358 357 
3 83 29 28 
3 10 12 29 
3 257 259 260 
3 256 257 260 
3 11 0 10 
3 11 10 116 
3 119 466 120 
3 356 445 355 
3 398 230 467 
3 483 85 415 
3 304 281 85 
3 467 229 221 
3 244 242 245 
3 247 244 245 
3 23 24 82 
3 24 81 82 
3 305 304 81 
3 428 389 387 
3 25 26 70 
3 314 468 313 
3 82 84 83 
3 304 283 281 
3 85 281 415 
3 30 116 29 
3 329 330 328 
3 188 189 154 
3 183 131 130 
3 131 183 132 
3 427 200 199 
3 200 150 199 
3 50 105 51 
3 475 286 285 
3 230 231 229 
3 84 82 304 
3 233 235 232 
3 417 416 275 
3 81 304 82 
3 256 260 40 
3 401 230 398 
3 274 417 275 
3 291 273 293 
3 234 233 231 
3 401 234 231 
3 354 353 352 
3 219 222 467 
3 280 278 277 
3 280 277 415 
3 287 479 463 
3 274 273 272 
3 274 272 417 
3 400 68 111 
3 358 346 481 
3 287 448 286 
3 283 282 281 
3 279 278 482 
3 329 404 330 
3 419 461 386 
3 11 123 0 
3 323 322 321 
3 432 434 433 
3 400 432 433 
3 389 292 388 
3 459 398 467 
3 461 365 369 
3 386 461 384 
3 284 285 283 
3 305 284 283 
3 285 282 283 
3 285 482 282 
3 286 482 285 
3 373 375 374 
3 475 285 284 
3 18 17 411 
3 18 411 412 
3 174 146 145 
3 303 255 302 
3 70 71 25 
3 39 417 418 
3 271 418 417 
3 387 385 392 
3 270 418 271 
3 276 274 275 
3 269 468 314 
3 123 11 117 
3 11 116 117 
3 274 276 294 
3 210 258 302 
3 258 261 302 
3 393 298 299 
3 384 372 394 
3 372 368 373 
3 368 375 373 
3 384 394 385 
3 293 294 485 
3 298 300 270 
3 325 382 381 
3 216 188 218 
3 294 279 485 
3 279 447 485 
3 395 391 292 
3 463 450 449 
3 37 256 36 
3 300 269 270 
3 474 465 445 
3 391 395 396 
3 37 257 256 
3 464 450 463 
3 430 337 336 
3 344 430 336 
3 421 425 405 
3 425 426 405 
3 355 349 352 
3 353 355 352 
3 386 384 385 
3 325 363 361 
3 296 299 297 
3 332 366 363 
3 484 443 442 
3 465 349 355 
3 352 349 348 
3 351 352 348 
3 367 372 369 
3 363 360 361 
3 443 484 444 
3 356 354 357 
3 372 384 369 
3 369 384 461 
3 465 355 445 
3 320 323 321 
3 349 465 469 
3 465 464 469 
3 484 419 420 
3 420 419 390 
3 449 396 447 
3 296 295 299 
3 423 421 406 
3 367 378 368 
3 354 351 346 
3 372 367 368 
3 367 366 378 
3 325 362 324 
3 210 195 208 
3 208 195 191 
3 175 181 158 
3 158 181 180 
3 345 328 327 
3 481 345 327 
3 39 418 38 
3 418 268 38 
3 367 369 366 
3 369 365 366 
3 363 366 365 
3 299 295 389 
3 428 299 389 
3 441 484 442 
3 419 441 461 
3 77 79 249 
3 485 395 292 
3 378 366 332 
3 370 379 371 
3 18 19 252 
3 378 379 370 
3 378 370 368 
3 298 393 403 
3 363 365 364 
3 347 436 340 
3 332 381 379 
3 345 350 430 
3 350 348 430 
3 329 328 344 
3 346 345 481 
3 335 316 319 
3 307 70 69 
3 307 69 68 
3 387 388 386 
3 374 234 237 
3 365 441 364 
3 419 484 441 
3 485 292 293 
3 291 293 292 
3 295 291 292 
3 389 295 292 
3 387 392 428 
3 428 392 393 
3 385 394 392 
3 299 428 393 
3 386 385 387 
3 234 374 376 
3 233 234 376 
3 268 418 269 
3 216 189 188 
3 268 314 312 
3 268 269 314 
3 186 187 155 
3 39 38 37 
3 38 311 37 
3 211 121 215 
3 237 402 403 
3 298 473 300 
3 473 298 402 
3 269 300 468 
3 467 222 459 
3 154 155 187 
3 313 468 462 
3 299 298 297 
3 402 398 473 
3 398 459 473 
3 6 4 5 
3 4 6 264 
3 221 216 218 
3 209 258 210 
3 217 189 216 
3 189 217 190 
3 257 258 259 
3 456 412 454 
3 9 6 8 
3 227 235 429 
3 235 227 232 
3 235 236 429 
3 376 377 235 
3 375 377 376 
3 375 370 377 
3 373 374 238 
3 231 230 401 
3 254 253 255 
3 235 377 236 
3 394 373 238 
3 42 46 252 
3 42 252 20 
3 424 425 421 
3 360 481 327 
3 377 371 383 
3 236 377 383 
3 319 317 382 
3 319 382 320 
3 94 96 487 
3 94 487 93 
3 109 56 110 
3 110 56 57 
3 298 403 402 
3 98 87 97 
3 205 98 97 
3 227 226 232 
3 238 237 403 
3 234 401 237 
3 307 68 308 
3 233 232 231 
3 224 226 225 
3 307 306 70 
3 70 306 71 
3 306 308 284 
3 308 475 284 
3 225 217 224 
3 303 313 315 
3 220 199 193 
3 312 313 302 
3 312 302 261 
3 164 154 153 
3 257 37 311 
3 241 429 239 
3 451 220 225 
3 227 451 225 
3 315 313 462 
3 254 303 315 
3 217 216 224 
3 42 20 21 
3 226 231 232 
3 231 226 228 
3 429 236 239 
3 7 264 6 
3 308 433 475 
3 433 308 400 
3 204 207 206 
3 222 253 223 
3 156 186 155 
3 193 217 220 
3 429 451 227 
3 119 120 122 
3 200 96 202 
3 194 180 128 
3 180 181 128 
3 254 255 303 
3 44 45 43 
3 162 169 166 
3 169 168 166 
3 151 152 190 
3 187 188 154 
3 254 223 253 
3 117 116 115 
3 170 169 162 
3 170 162 163 
3 223 462 459 
3 315 462 223 
3 222 223 459 
3 254 315 223 
3 185 253 186 
3 253 187 186 
3 219 187 253 
3 117 122 123 
3 185 191 195 
3 255 210 302 
3 311 268 312 
3 268 311 38 
3 452 301 290 
3 262 213 129 
3 213 290 129 
3 41 466 119 
3 255 195 210 
3 253 195 255 
3 253 185 195 
3 181 175 183 
3 154 165 155 
3 128 130 129 
3 158 165 159 
3 133 196 132 
3 196 133 135 
3 205 204 203 
3 157 165 158 
3 193 199 150 
3 148 147 168 
3 163 152 170 
3 22 21 20 
3 114 41 118 
3 215 121 120 
3 181 183 130 
3 3 2 446 
3 126 127 301 
3 118 41 119 
3 121 452 122 
3 256 40 36 
3 123 290 0 
3 214 0 290 
3 103 102 104 
3 177 192 191 
3 311 261 257 
3 312 261 311 
3 261 258 257 
3 258 215 259 
3 259 215 120 
3 466 259 120 
3 123 122 452 
3 131 262 130 
3 262 131 212 
3 165 156 155 
3 167 162 166 
3 184 173 174 
3 18 26 17 
3 124 126 301 
3 124 301 452 
3 213 214 290 
3 414 141 263 
3 180 177 157 
3 176 177 191 
3 157 158 180 
3 127 126 194 
3 194 126 125 
3 157 177 176 
3 1 0 214 
3 2 214 446 
3 1 2 12 
3 12 2 3 
3 13 12 3 
3 214 2 1 
3 204 206 145 
3 106 21 486 
3 21 472 486 
3 176 191 185 
3 486 104 106 
3 130 262 129 
3 182 183 172 
3 9 8 453 
3 79 310 289 
3 79 289 439 
3 128 181 130 
3 194 177 180 
3 185 156 176 
3 131 197 212 
3 203 148 201 
3 212 446 213 
3 427 220 451 
3 191 192 208 
3 194 125 192 
3 208 192 211 
3 192 125 211 
3 140 141 142 
3 142 141 413 
3 164 161 160 
3 154 164 165 
3 165 164 160 
3 476 8 440 
3 251 250 101 
3 175 158 159 
3 160 161 171 
3 16 7 411 
3 171 161 167 
3 263 143 144 
3 152 151 170 
3 168 169 148 
3 103 431 414 
3 263 103 414 
3 446 4 3 
3 175 159 172 
3 159 160 171 
3 486 431 104 
3 246 429 243 
3 343 404 329 
3 470 142 413 
3 455 477 478 
3 136 478 135 
3 159 171 172 
3 236 383 239 
3 454 453 455 
3 26 25 17 
3 25 16 17 
3 100 99 107 
3 100 107 109 
3 212 197 198 
3 172 183 175 
3 134 135 133 
3 135 134 136 
3 333 426 425 
3 171 167 179 
3 472 471 486 
3 19 20 252 
3 179 134 182 
3 250 251 144 
3 166 173 178 
3 167 166 178 
3 178 179 167 
3 97 99 207 
3 96 95 202 
3 95 201 202 
3 212 198 446 
3 24 25 71 
3 173 168 174 
3 308 306 307 
3 244 247 92 
3 143 145 144 
3 196 197 132 
3 440 198 197 
3 134 133 182 
3 197 131 132 
3 135 477 476 
3 477 135 478 
3 471 431 486 
3 267 73 74 
3 73 72 74 
3 338 406 343 
3 330 426 321 
3 153 189 152 
3 139 470 458 
3 198 5 4 
3 137 478 136 
3 136 178 137 
3 179 178 136 
3 470 431 471 
3 179 136 134 
3 243 429 241 
3 477 453 8 
3 477 8 476 
3 455 453 477 
3 147 174 168 
3 140 184 143 
3 457 454 455 
3 457 455 458 
3 457 471 472 
3 184 137 178 
3 456 454 457 
3 48 49 64 
3 64 49 73 
3 431 413 414 
3 107 108 109 
3 109 108 56 
3 62 87 88 
3 163 164 152 
3 152 164 153 
3 109 110 101 
3 101 110 102 
3 146 174 147 
3 3 4 264 
3 251 101 102 
3 168 173 166 
3 69 27 67 
3 112 111 113 
3 421 405 406 
3 405 343 406 
3 142 139 138 
3 478 458 455 
3 457 458 471 
3 173 184 178 
3 50 43 106 
3 470 413 431 
3 251 103 263 
3 102 103 251 
3 184 174 143 
3 251 263 144 
3 470 139 142 
3 142 138 140 
3 413 141 414 
3 206 207 250 
3 138 184 140 
3 101 100 109 
3 59 60 62 
3 91 90 288 
3 457 472 22 
3 149 169 170 
3 169 149 148 
3 412 9 454 
3 9 453 454 
3 200 246 96 
3 45 44 64 
3 9 7 6 
3 18 27 26 
3 151 190 193 
3 90 92 288 
3 220 427 199 
3 67 68 69 
3 265 113 65 
3 241 240 242 
3 241 242 243 
3 427 451 246 
3 451 429 246 
3 94 88 95 
3 88 94 93 
3 62 86 87 
3 150 151 193 
3 149 150 202 
3 149 202 148 
3 149 170 150 
3 150 170 151 
3 150 200 202 
3 89 88 93 
3 203 201 95 
3 203 95 205 
3 95 98 205 
3 95 88 98 
3 56 55 57 
3 55 52 57 
3 242 240 245 
3 66 47 46 
3 57 52 51 
3 87 99 97 
3 62 89 91 
3 89 90 91 
3 98 88 87 
3 59 61 60 
3 57 105 110 
3 242 244 243 
3 243 244 487 
3 73 49 72 
3 331 320 321 
3 92 247 288 
3 288 247 289 
3 247 248 289 
3 380 383 371 
3 58 75 54 
3 317 318 380 
3 288 309 91 
3 288 289 309 
3 487 244 92 
3 45 64 63 
3 469 464 435 
3 93 487 92 
3 241 239 240 
3 239 383 240 
3 110 104 102 
3 44 43 50 
3 74 72 54 
3 75 74 54 
3 108 86 61 
3 86 60 61 
3 96 246 487 
3 246 200 427 
3 90 89 93 
3 86 107 99 
3 87 86 99 
3 88 89 62 
3 62 60 86 
3 63 265 65 
3 91 309 62 
3 309 59 62 
3 105 104 110 
3 55 108 61 
3 309 289 310 
3 86 108 107 
3 346 351 350 
3 345 344 328 
3 58 309 310 
3 75 58 310 
3 18 412 19 
3 76 80 266 
3 112 113 410 
3 460 408 410 
3 79 77 75 
3 310 79 75 
3 336 343 329 
3 47 67 27 
3 329 344 336 
3 430 348 347 
3 334 249 439 
3 337 347 340 
3 337 340 338 
3 337 338 343 
3 422 424 421 
3 382 317 380 
3 77 76 75 
3 265 267 410 
3 479 434 435 
3 76 78 80 
3 78 76 77 
3 323 325 324 
3 325 323 382 
3 76 74 75 
3 422 78 424 
3 61 54 55 
3 49 52 72 
3 59 309 58 
3 327 362 361 
3 360 327 361 
3 61 59 54 
3 54 59 58 
3 343 405 404 
3 328 330 326 
3 266 80 267 
3 45 42 43 
3 323 320 382 
3 381 382 380 
3 7 9 411 
3 435 434 438 
3 337 343 336 
3 362 327 326 
3 440 8 5 
3 379 381 380 
3 379 380 371 
3 113 111 65 
3 404 426 330 
3 426 331 321 
3 430 347 337 
3 333 424 334 
3 424 249 334 
3 245 240 318 
3 71 305 81 
3 424 333 425 
3 52 53 72 
3 48 44 50 
3 245 316 247 
3 316 248 247 
3 245 318 316 
3 316 318 317 
3 308 68 400 
3 248 316 335 
3 426 404 405 
3 76 266 74 
3 21 22 472 
3 348 349 469 
3 331 335 319 
3 335 331 334 
3 248 335 439 
3 289 248 439 
3 439 335 334 
3 346 350 345 
3 333 331 426 
3 331 319 320 
3 339 437 341 
3 331 333 334 
3 323 324 322 
3 342 407 423 
3 407 460 423 
3 345 430 344 
3 322 324 326 
3 424 78 249 
3 435 438 437 
3 399 438 432 
3 399 432 400 
3 341 407 342 
3 348 469 436 
3 51 105 57 
3 338 340 339 
3 437 339 340 
3 267 74 266 
3 55 53 52 
3 252 47 27 
3 438 407 341 
3 342 339 341 
3 113 265 410 
3 80 460 267 
3 267 460 410 
3 399 400 111 
3 437 436 435 
3 15 16 24 
3 22 19 412 
3 479 475 433 
3 434 479 433 
3 407 408 460 
3 435 464 479 
3 409 112 410 
3 63 73 265 
3 456 457 22 
3 409 399 112 
3 19 22 20 
3 64 73 63 
3 55 54 53 
3 66 67 47 
3 438 434 432 
3 438 399 409 
3 410 408 409 
3 111 112 399 
3 24 71 81 
3 198 440 5 
3 406 342 423 
3 341 437 438 
3 407 409 408 
3 438 409 407 
3 306 305 71 
3 16 25 24 
3 68 66 111 
3 70 26 27 
3 70 27 69 
3 252 27 18 
3 43 42 21 
3 13 264 14 
3 3 264 13 
3 14 264 15 
3 264 7 15 
3 9 412 411 
3 46 42 45 
3 43 21 106 
3 63 65 45 
3 45 65 46 
3 66 68 67 
3 65 66 46 
3 111 66 65 
3 64 44 48 
